<?xml version="1.0" encoding="utf-8"?>
<!-- Generator: Adobe Illustrator 23.0.4, SVG Export Plug-In . SVG Version: 6.00 Build 0)  -->
<svg version="1.1" id="Layer_1" xmlns="http://www.w3.org/2000/svg" xmlns:xlink="http://www.w3.org/1999/xlink" x="0px" y="0px"
	 width="400px" height="400px" viewBox="0 0 300 300" style="enable-background:new 0 0 300 300;" xml:space="preserve">
<style type="text/css">
	.st0{fill:#FFFFFF;}
</style>
<path class="st0" d="M142,1c6,0,12,0,18,0c1.4,0.3,2.9,0.8,4.3,0.9C229.1,7.6,282.9,54.6,297,118c1.8,7.9,2.7,16,4,24c0,6,0,12,0,18
	c-0.3,1.6-0.8,3.2-0.9,4.8c-5.3,63.6-53.2,118.5-115.5,132.1c-8.1,1.8-16.3,2.8-24.5,4.1c-6,0-12,0-18,0c-1.4-0.3-2.9-0.8-4.3-0.9
	C73.2,294.6,19.1,247.3,5,184c-1.8-7.9-2.7-16-4-24c0-6,0-12,0-18c0.3-1.6,0.8-3.2,0.9-4.8C7.2,73.7,55.2,18.7,117.5,5.1
	C125.6,3.4,133.8,2.4,142,1z M147.5,23.2C76.2,25.5,21.2,84.7,23.3,154.6c2.1,71,61,126,131,124.1c71.4-1.9,126.4-61.1,124.5-131.1
	C276.8,76.3,217.5,21.4,147.5,23.2z"/>
<path class="st0" d="M151.1,254.6C94.2,254.8,47.3,208,47.3,151c0-57,46.7-103.6,103.8-103.6c56.7,0,103.1,46.3,103.5,103.4
	C255,207.6,208.3,254.4,151.1,254.6z M94.5,112.5c-2.2,0-4.6-0.4-6.4,0.2s-4.5,1.9-5,4.2s1.9,5.5,3.2,6.4s3.1,1.2,4.7,1.3
	c11.9,1,23.9,2,35.8,2.8c9.7,0.6,12.4,2.8,11.7,12.5c-0.6,9.6-1.4,19.3-3.4,28.7c-4.1,18.5-9.1,36.8-13.7,55.2c-0.8,3-1.4,6.3,2,7.9
	c3.5,1.6,7.1,0.6,9.1-2.8c1.8-3.1,3.5-6.5,4.5-10c3.4-12.2,6.4-24.5,9.8-36.6c0.6-2.3,2.2-6.2,4-6.2s3.8,3.6,4.5,5.7
	c2.1,6.8,3.5,13.9,5.5,20.7c2.4,8.3,4.8,16.6,8,24.7c2.1,5.2,5.8,6.2,10.1,4.4c5.1-2.2,2.4-5.9,1.6-8.9c-3.2-11.7-7.6-23.2-9.8-35.1
	c-3-16.1-4.9-32.5-6.4-48.9c-0.8-8.2,2.6-11.1,10.8-11.6c10.3-0.7,20.6-1.1,30.9-1.9c3.3-0.2,6.7-0.6,9.7-2c1.6-0.7,3.4-2.7,3.3-5.3
	s-2.2-3.8-4-4.8c-1.6-0.9-3.9-0.6-5.8-0.5c-16.8,1-33.6,3-50.3,3.1C137.4,115.7,94.5,112.8,94.5,112.5z M151,108.3
	c11.6,0,21.1-9.4,21-20.8c0-11.5-9.5-20.9-21-20.9c-11.5,0-21,9.4-21,20.9C129.9,98.9,139.4,108.3,151,108.3z"/>
</svg>
